<svg width="10" height="10" viewBox="0 0 10 10" fill="none" xmlns="http://www.w3.org/2000/svg">
<path d="M2.26129 2.36499C2.96183 1.66204 3.9299 1.22773 5.00016 1.22773C7.13568 1.22773 8.86683 2.9589 8.86683 5.0944C8.86683 7.22992 7.13568 8.96107 5.00016 8.96107C2.86466 8.96107 1.1335 7.22992 1.1335 5.0944C1.1335 4.87349 0.954408 4.6944 0.733496 4.6944C0.512584 4.6944 0.333496 4.87349 0.333496 5.0944C0.333496 7.67173 2.42283 9.76107 5.00016 9.76107C7.5775 9.76107 9.66683 7.67173 9.66683 5.0944C9.66683 2.51707 7.5775 0.427734 5.00016 0.427734C3.7087 0.427734 2.53914 0.952865 1.69463 1.80028C1.68106 1.8139 1.66867 1.82825 1.65747 1.84321L0.986766 1.17251C0.913598 1.09934 0.804712 1.07511 0.707421 1.11033C0.610131 1.14555 0.541997 1.23388 0.532632 1.33692L0.344067 3.4111C0.336904 3.48992 0.365117 3.56785 0.42108 3.62381C0.477037 3.67977 0.554968 3.70798 0.633784 3.70082L2.70797 3.51226C2.81101 3.50289 2.89934 3.43476 2.93456 3.33747C2.96978 3.24017 2.94555 3.13129 2.87238 3.05812L2.21739 2.40313C2.2327 2.39165 2.24738 2.37894 2.26129 2.36499Z" fill="#909090"/>
<path d="M5.47919 2.60842C5.47919 2.39537 5.29168 2.22266 5.0604 2.22266C4.82911 2.22266 4.6416 2.39537 4.6416 2.60842V5.18014C4.6416 5.31315 4.71598 5.43675 4.83843 5.50727L6.51361 6.47166C6.70977 6.58456 6.96814 6.52968 7.09071 6.34899C7.21328 6.1683 7.1537 5.93031 6.95753 5.81742L5.47919 4.96633V2.60842Z" fill="#909090"/>
</svg>
