<svg width="32" height="32" viewBox="0 0 32 32" fill="none" xmlns="http://www.w3.org/2000/svg">
<path d="M22.7196 9.14258C22.9177 9.14258 23.1076 9.22374 23.2476 9.36821C23.3876 9.51268 23.4663 9.70862 23.4663 9.91293V19.1572C23.4663 19.3615 23.3876 19.5574 23.2476 19.7019C23.1076 19.8464 22.9177 19.9275 22.7196 19.9275H15.5151L11.9863 22.8402C11.8765 22.931 11.744 22.9878 11.6042 23.0043C11.4645 23.0207 11.323 22.9961 11.1962 22.9332C11.0694 22.8703 10.9624 22.7718 10.8875 22.6489C10.8126 22.526 10.7729 22.3838 10.773 22.2386V19.9275H9.27964C9.08161 19.9275 8.8917 19.8464 8.75167 19.7019C8.61164 19.5574 8.53298 19.3615 8.53298 19.1572V9.91293C8.53298 9.70862 8.61164 9.51268 8.75167 9.36821C8.8917 9.22374 9.08161 9.14258 9.27964 9.14258H22.7196ZM10.0263 18.3868H11.5196C11.7177 18.3868 11.9076 18.468 12.0476 18.6125C12.1876 18.7569 12.2663 18.9529 12.2663 19.1572V20.6355L14.7863 18.5555C14.9188 18.4462 15.0834 18.3867 15.253 18.3868H21.973V10.6833H10.0263V18.3868Z" fill="#909090"/>
</svg>
