<svg width="16" height="18" viewBox="0 0 16 18" fill="none" xmlns="http://www.w3.org/2000/svg">
<path d="M8.00003 12C8.59337 12 9.17339 11.8241 9.66674 11.4944C10.1601 11.1648 10.5446 10.6962 10.7717 10.1481C10.9987 9.59987 11.0581 8.99667 10.9424 8.41473C10.8266 7.83279 10.5409 7.29824 10.1214 6.87868C9.70179 6.45912 9.16724 6.1734 8.5853 6.05764C8.00336 5.94189 7.40016 6.0013 6.85198 6.22836C6.3038 6.45542 5.83526 6.83994 5.50562 7.33329C5.17598 7.82664 5.00003 8.40666 5.00003 9C5.00003 9.79565 5.3161 10.5587 5.87871 11.1213C6.44132 11.6839 7.20438 12 8.00003 12ZM8.00003 7.5C8.2967 7.5 8.58671 7.58797 8.83338 7.7528C9.08006 7.91762 9.27232 8.15189 9.38585 8.42597C9.49938 8.70006 9.52909 9.00166 9.47121 9.29263C9.41333 9.58361 9.27047 9.85088 9.06069 10.0607C8.85091 10.2704 8.58364 10.4133 8.29267 10.4712C8.00169 10.5291 7.70009 10.4994 7.426 10.3858C7.15192 10.2723 6.91765 10.08 6.75283 9.83335C6.588 9.58668 6.50003 9.29667 6.50003 9C6.50003 8.60218 6.65807 8.22064 6.93937 7.93934C7.22067 7.65804 7.6022 7.5 8.00003 7.5ZM1.62503 9.65775L0.875029 10.092C0.704383 10.1904 0.554797 10.3215 0.434814 10.4778C0.314831 10.634 0.226801 10.8124 0.175751 11.0026C0.124701 11.1929 0.111631 11.3914 0.137287 11.5867C0.162943 11.782 0.226823 11.9704 0.325279 12.141L1.44203 14.0745C1.5404 14.2454 1.6715 14.3952 1.82784 14.5154C1.98418 14.6356 2.16268 14.7238 2.35313 14.7749C2.54358 14.8261 2.74225 14.8391 2.93776 14.8134C3.13327 14.7877 3.32179 14.7237 3.49253 14.625L4.25003 14.187C4.36563 14.1217 4.4964 14.0882 4.62914 14.0896C4.76187 14.091 4.89188 14.1275 5.00603 14.1952C5.11876 14.2605 5.21238 14.3542 5.27753 14.467C5.34268 14.5798 5.37708 14.7077 5.37728 14.838V15.75C5.37728 16.1478 5.53531 16.5294 5.81662 16.8107C6.09792 17.092 6.47945 17.25 6.87728 17.25H9.12728C9.5251 17.25 9.90664 17.092 10.1879 16.8107C10.4692 16.5294 10.6273 16.1478 10.6273 15.75V14.8365C10.6293 14.7056 10.6652 14.5775 10.7315 14.4647C10.7978 14.3518 10.8922 14.2581 11.0056 14.1927C11.1189 14.1272 11.2473 14.0923 11.3782 14.0913C11.5091 14.0903 11.6379 14.1233 11.7523 14.187L12.509 14.6235C12.8535 14.8224 13.263 14.8763 13.6472 14.7733C14.0315 14.6704 14.3591 14.419 14.558 14.0745L15.674 12.141C15.7725 11.9704 15.8364 11.782 15.862 11.5867C15.8877 11.3914 15.8746 11.1929 15.8236 11.0026C15.7725 10.8124 15.6845 10.634 15.5645 10.4778C15.4445 10.3215 15.2949 10.1904 15.1243 10.092L14.3743 9.65775C14.258 9.59 14.1619 9.4924 14.0959 9.37504C14.03 9.25768 13.9966 9.12484 13.9993 8.99025C13.9995 8.85886 14.0343 8.72984 14.1001 8.61611C14.166 8.50239 14.2605 8.40795 14.3743 8.34225L15.1243 7.908C15.2949 7.80957 15.4445 7.67849 15.5645 7.52224C15.6845 7.36599 15.7725 7.18764 15.8236 6.99737C15.8746 6.8071 15.8877 6.60863 15.862 6.41331C15.8364 6.21799 15.7725 6.02963 15.674 5.859L14.5565 3.9255C14.4582 3.75479 14.3271 3.60513 14.1709 3.48508C14.0147 3.36502 13.8363 3.27691 13.6461 3.22579C13.4558 3.17467 13.2573 3.16154 13.062 3.18714C12.8666 3.21274 12.6782 3.27658 12.5075 3.375L11.75 3.81225C11.6357 3.87621 11.5067 3.90936 11.3756 3.90844C11.2446 3.90751 11.1161 3.87255 11.0027 3.80699C10.8892 3.74142 10.7948 3.64749 10.7286 3.53442C10.6624 3.42135 10.6267 3.29301 10.625 3.162V2.25C10.625 1.85218 10.467 1.47064 10.1857 1.18934C9.90438 0.908035 9.52285 0.75 9.12503 0.75H6.87503C6.4772 0.75 6.09567 0.908035 5.81437 1.18934C5.53306 1.47064 5.37503 1.85218 5.37503 2.25V3.2205C5.37501 3.33306 5.34533 3.44362 5.28897 3.54106C5.23262 3.63849 5.15158 3.71935 5.05403 3.7755L4.93853 3.84225C4.84092 3.89774 4.73056 3.92692 4.61828 3.92692C4.506 3.92692 4.39564 3.89774 4.29803 3.84225L3.49253 3.375C3.32191 3.2764 3.13353 3.21238 2.93816 3.1866C2.74279 3.16083 2.54426 3.17381 2.3539 3.22479C2.16355 3.27577 1.9851 3.36377 1.82877 3.48374C1.67244 3.60371 1.54127 3.75332 1.44278 3.924L0.326779 5.85975C0.128051 6.20411 0.0741682 6.61328 0.176971 6.99735C0.279773 7.38142 0.53085 7.70896 0.875029 7.908L1.62503 8.3415C1.74125 8.40955 1.83725 8.50732 1.90316 8.62477C1.96906 8.74222 2.0025 8.8751 2.00003 9.00975C2.00022 9.14124 1.96563 9.27043 1.89977 9.38424C1.83391 9.49804 1.73913 9.5924 1.62503 9.65775ZM2.37503 7.0425L1.62503 6.609L2.74253 4.6755L3.54803 5.1405C3.87322 5.32737 4.24172 5.42572 4.61678 5.42572C4.99184 5.42572 5.36034 5.32737 5.68553 5.1405L5.80103 5.0745C6.12671 4.88656 6.39732 4.61639 6.5858 4.29103C6.77428 3.96567 6.87401 3.59651 6.87503 3.2205V2.25H9.12503V3.162C9.12659 3.55637 9.2315 3.94345 9.42931 4.28463C9.62712 4.62581 9.91091 4.90918 10.2524 5.10648C10.5939 5.30378 10.9811 5.40811 11.3755 5.40908C11.7698 5.41005 12.1576 5.30762 12.5 5.112L13.2553 4.6755L14.375 6.609L13.625 7.0425C13.2835 7.24248 13.0003 7.52834 12.8035 7.87168C12.6067 8.21501 12.5031 8.60388 12.5031 8.99963C12.5031 9.39537 12.6067 9.78424 12.8035 10.1276C13.0003 10.4709 13.2835 10.7568 13.625 10.9567L14.375 11.391L13.259 13.3245L12.5 12.888C12.1576 12.6924 11.7698 12.5899 11.3755 12.5909C10.9811 12.5919 10.5939 12.6962 10.2524 12.8935C9.91091 13.0908 9.62712 13.3742 9.42931 13.7154C9.2315 14.0566 9.12659 14.4436 9.12503 14.838V15.75H6.87503V14.838C6.87392 14.4434 6.76929 14.0561 6.57159 13.7147C6.37389 13.3732 6.09004 13.0896 5.74841 12.8922C5.40679 12.6949 5.01934 12.5906 4.62479 12.5898C4.23024 12.5891 3.8424 12.6919 3.50003 12.888L2.74478 13.3245L1.62503 11.391L2.37503 10.9567C2.71653 10.7568 2.99976 10.4709 3.19658 10.1276C3.3934 9.78424 3.49696 9.39537 3.49695 8.99963C3.49696 8.60388 3.3934 8.21501 3.19658 7.87168C2.99976 7.52834 2.71653 7.24248 2.37503 7.0425Z" fill="#909090"/>
</svg>
