<svg width="32" height="32" viewBox="0 0 32 32" fill="none" xmlns="http://www.w3.org/2000/svg">
<rect width="32" height="32" rx="16" fill="#131313"/>
<g clip-path="url(#clip0_34_1771)">
<path d="M15.9478 11.2773C14.8428 11.2773 13.9438 12.1763 13.9438 13.2813C13.9438 14.3862 14.8428 15.2852 15.9478 15.2852C17.0527 15.2852 17.9517 14.3862 17.9517 13.2813C17.9517 12.1763 17.0528 11.2773 15.9478 11.2773ZM15.9478 14.3421C15.3628 14.3421 14.8869 13.8662 14.8869 13.2813C14.8869 12.6963 15.3628 12.2204 15.9478 12.2204C16.5327 12.2204 17.0086 12.6963 17.0086 13.2813C17.0086 13.8662 16.5327 14.3421 15.9478 14.3421Z" fill="#FE4500"/>
<path d="M21.9679 18.1429C21.3961 17.2652 20.7078 16.8618 20.3484 16.6994C20.5414 15.464 20.6061 14.2308 20.4178 13.178C19.7337 9.3535 16.4204 7.05578 16.2797 6.95979C16.0794 6.8233 15.8159 6.8233 15.6156 6.95979C15.4749 7.05572 12.1616 9.3535 11.4776 13.1779C11.2869 14.2438 11.3557 15.4945 11.5543 16.7452C11.1774 16.9326 10.5556 17.3386 10.0315 18.1428C9.04636 19.6546 8.88093 21.8036 9.53983 24.53C9.58539 24.7187 9.72103 24.8729 9.90234 24.9422C9.9705 24.9683 10.0417 24.981 10.1127 24.981C10.2306 24.981 10.3475 24.9456 10.4473 24.8768L13.3203 22.8955C13.3966 23.0866 13.4469 23.2058 13.4602 23.2372C13.5527 23.4547 13.7663 23.596 14.0027 23.596H15.3583V24.5537C15.3583 24.8792 15.6221 25.1431 15.9477 25.1431C16.2732 25.1431 16.537 24.8792 16.537 24.5537V23.596H17.8926C18.129 23.596 18.3426 23.4547 18.4351 23.2372C18.4497 23.2028 18.5085 23.063 18.5974 22.8392L21.552 24.8768C21.6518 24.9456 21.7688 24.981 21.8867 24.981C21.9576 24.981 22.0289 24.9682 22.097 24.9422C22.2783 24.8729 22.4139 24.7188 22.4595 24.53C23.1184 21.8037 22.953 19.6547 21.9679 18.1429ZM15.9477 8.18832C16.329 8.49813 16.9833 9.08205 17.6176 9.89277H14.2777C14.9121 9.08186 15.5665 8.49801 15.9477 8.18832ZM10.5057 23.4048C9.86239 19.8507 11.0824 18.4627 11.7877 17.9725C12.1052 19.4194 12.5432 20.7815 12.892 21.759L10.5057 23.4048ZM17.4952 22.4172H16.537V17.7463C16.537 17.4208 16.2732 17.1569 15.9477 17.1569C15.6221 17.1569 15.3583 17.4208 15.3583 17.7463V22.4172H14.3998C13.8719 21.0791 12.1145 16.3112 12.6379 13.3855C12.8093 12.4269 13.1821 11.5706 13.6261 10.8358H18.2691C18.7132 11.5706 19.086 12.4269 19.2574 13.3855C19.78 16.3078 18.023 21.0783 17.4952 22.4172ZM21.4938 23.4048L19.0239 21.7014C19.3741 20.7146 19.8085 19.353 20.1208 17.9121C20.8048 18.3434 22.1656 19.6926 21.4938 23.4048Z" fill="#FE4500"/>
</g>
<defs>
<clipPath id="clip0_34_1771">
<rect width="18.2857" height="18.2857" fill="white" transform="translate(6.85693 6.85742)"/>
</clipPath>
</defs>
</svg>
