<svg width="12" height="12" viewBox="0 0 12 12" fill="none" xmlns="http://www.w3.org/2000/svg">
<path d="M11.88 10.5853H0.12C0.054 10.5853 0 10.656 0 10.7425V11.8428C0 11.9293 0.054 12 0.12 12H11.88C11.946 12 12 11.9293 12 11.8428V10.7425C12 10.656 11.946 10.5853 11.88 10.5853ZM0.8055 8.12525L1.401 8.90138C1.4475 8.96229 1.524 8.96229 1.5705 8.90138L5.091 4.30553L6.555 6.21736C6.6452 6.33442 6.76703 6.40009 6.894 6.40009C7.02097 6.40009 7.1428 6.33442 7.233 6.21736L11.196 1.04579C11.2425 0.984877 11.2425 0.884668 11.196 0.823757L10.6005 0.0456639C10.5779 0.0164104 10.5475 0 10.5157 0C10.484 0 10.4536 0.0164104 10.431 0.0456639L6.8955 4.66313L5.43 2.7513C5.3398 2.63424 5.21797 2.56857 5.091 2.56857C4.96403 2.56857 4.8422 2.63424 4.752 2.7513L0.8055 7.90322C0.79428 7.91773 0.785371 7.93502 0.779291 7.95408C0.77321 7.97313 0.770079 7.99358 0.770079 8.01424C0.770079 8.03489 0.77321 8.05534 0.779291 8.0744C0.785371 8.09346 0.79428 8.11074 0.8055 8.12525Z" fill="#727171"/>
</svg>
