<svg width="32" height="32" viewBox="0 0 32 32" fill="none" xmlns="http://www.w3.org/2000/svg">
<path d="M11.6177 11.7852C12.7385 10.6604 14.2875 9.96555 15.9999 9.96555C19.4167 9.96555 22.1865 12.7354 22.1865 16.1522C22.1865 19.569 19.4167 22.3389 15.9999 22.3389C12.5831 22.3389 9.8132 19.569 9.8132 16.1522C9.8132 15.7988 9.52666 15.5122 9.1732 15.5122C8.81974 15.5122 8.5332 15.7988 8.5332 16.1522C8.5332 20.2759 11.8761 23.6189 15.9999 23.6189C20.1236 23.6189 23.4665 20.2759 23.4665 16.1522C23.4665 12.0285 20.1236 8.68555 15.9999 8.68555C13.9335 8.68555 12.0622 9.52576 10.711 10.8816C10.6893 10.9034 10.6695 10.9264 10.6516 10.9503L9.57843 9.87718C9.46137 9.76012 9.28715 9.72134 9.13148 9.77769C8.97582 9.83406 8.86681 9.97538 8.85182 10.1402L8.55012 13.4589C8.53866 13.585 8.5838 13.7097 8.67334 13.7993C8.76287 13.8888 8.88756 13.9339 9.01366 13.9225L12.3324 13.6208C12.4972 13.6058 12.6385 13.4968 12.6949 13.3411C12.7513 13.1854 12.7125 13.0112 12.5954 12.8942L11.5474 11.8462C11.5719 11.8278 11.5954 11.8075 11.6177 11.7852Z" fill="#909090"/>
<path d="M16.7659 12.1748C16.7659 11.834 16.4659 11.5576 16.0959 11.5576C15.7258 11.5576 15.4258 11.834 15.4258 12.1748V16.2896C15.4258 16.5024 15.5448 16.7002 15.7407 16.813L18.421 18.356C18.7349 18.5367 19.1482 18.4489 19.3444 18.1598C19.5405 17.8707 19.4451 17.4899 19.1313 17.3092L16.7659 15.9475V12.1748Z" fill="#909090"/>
</svg>
